<svg width="524" height="728" viewBox="0 0 524 728" fill="none" xmlns="http://www.w3.org/2000/svg">
<path d="M73.2067 197.996C-6.42991 241.832 0.876308 385.763 0.876308 385.763C0.585712 480.526 18.8509 618.01 59.0345 614.958C99.2181 611.906 90.4507 446.917 90.4507 446.917V379.701C90.4507 341.709 101.41 315.407 101.41 315.407C101.41 315.407 121.867 267.918 170.087 278.877C218.308 289.836 210.271 352.669 177.394 363.628C144.516 374.587 143.785 398.697 143.785 398.697C143.785 398.697 141.594 449.109 183.969 454.224C226.344 459.338 249.357 442.475 276.757 414.04C328.07 360.786 320.593 270.84 269.45 224.812C218.307 178.783 152.843 154.159 73.2067 197.996Z" fill="#C8AAAA"/>
<path d="M0.146636 385.8C0.633084 385.775 1.11953 385.75 1.60598 385.726C0.831804 358.946 3.14762 331.656 8.53867 305.264C17.1873 263.838 35.1758 219.89 73.559 198.636C135.142 160.011 218.48 174.849 268.962 225.355C321.203 272.371 325.805 362.975 276.23 413.533C253.15 439.637 219.768 460.014 184.057 453.498C157.435 451.787 143.679 423.001 144.515 398.729C146.327 381.692 161.698 369.304 177.625 364.321C216.01 350.374 212.596 283.931 170.249 278.165C141.767 270.152 112.297 289.395 100.739 315.118C93.0642 335.781 89.8044 357.773 89.72 379.701C89.72 401.378 89.72 423.057 89.72 444.717C89.72 445.465 89.72 446.221 89.72 446.917L89.7211 446.956C90.9943 476.479 90.923 506.483 88.6127 536.066C87.389 550.873 85.6217 565.691 82.1385 580.085C78.3695 593.594 74.0421 611.707 58.9792 614.229C44.7526 614.793 36.633 599.918 30.9593 588.041C25.3004 575.58 21.3927 562.144 18.1441 548.739C11.7293 521.743 7.9818 494.308 5.3539 466.721C2.85105 439.809 1.54684 412.751 1.60692 385.765C1.11984 385.763 0.632772 385.762 0.1457 385.76C0.0856064 412.801 1.39188 439.897 3.89905 466.857C6.53224 494.494 10.2839 521.978 16.7233 549.08C19.9868 562.541 23.9069 576.042 29.6309 588.65C35.4237 600.583 43.4258 616.127 59.0898 615.686C75.8468 612.609 79.6216 594.013 83.5576 580.433C87.0713 565.909 88.8407 551.038 90.0692 536.184C92.3858 506.506 92.4568 476.487 91.1802 446.879L91.1813 446.917C91.1813 446.221 91.1813 445.465 91.1813 444.717C91.1813 423.057 91.1813 401.378 91.1813 379.701C91.2555 357.958 94.5331 336.015 102.084 315.688C113.461 290.513 142.088 271.769 169.925 279.589C210.997 285.06 213.978 349.67 177.162 362.935C160.963 368.041 144.99 380.583 143.055 398.675C142.133 423.354 156.366 453.172 183.881 454.949C219.972 461.61 254.26 440.693 277.283 414.547C327.447 363.313 322.807 271.907 269.939 224.269C219.287 173.464 134.785 158.413 72.8544 197.355C33.8554 218.982 15.8068 263.365 7.10785 304.968C1.69149 331.502 -0.632409 358.826 0.146636 385.8ZM1.60598 385.726L0.146636 385.8L0.1457 385.76L1.60692 385.765L1.60598 385.726Z" fill="#C8AAAA"/>
<circle cx="247.092" cy="81.0978" r="81.0978" fill="#C8AAAA"/>
<circle cx="93.6641" cy="117.628" r="50.4122" fill="#C8AAAA"/>
<circle cx="353.762" cy="224.298" r="50.4122" fill="#C8AAAA"/>
<circle cx="230.289" cy="36.5306" r="24.8408" fill="#574964"/>
<path d="M176.223 605.774L175.249 606.846C174.599 607.625 173.593 608.534 172.229 609.574C170.93 610.613 169.404 611.652 167.651 612.691C165.962 613.73 163.884 614.607 161.416 615.321C158.948 616.1 156.415 616.49 153.818 616.49C136.283 616.49 127.516 607.82 127.516 590.48C127.516 587.103 128.133 584.018 129.367 581.226C130.6 578.368 132.192 575.965 134.14 574.017C136.088 572.069 138.426 570.348 141.154 568.854C143.881 567.295 146.609 566.094 149.337 565.25C152.129 564.341 155.052 563.594 158.104 563.009C161.156 562.425 163.884 562.035 166.287 561.84C168.69 561.645 170.995 561.548 173.203 561.548V559.795C173.203 555.833 172.132 553.04 169.989 551.417C167.91 549.793 164.533 548.981 159.857 548.981C155.831 548.981 151.642 549.469 147.291 550.443C142.94 551.352 139.53 552.456 137.062 553.755L130.828 540.506C135.244 537.649 140.991 535.149 148.07 533.005C155.149 530.797 162.358 529.693 169.696 529.693C176.191 529.693 181.548 530.343 185.77 531.642C189.991 532.876 193.401 535.019 195.998 538.071C198.661 541.058 200.544 544.89 201.648 549.566C202.752 554.177 203.304 560.054 203.304 567.198V606.846L206.032 614.444H179.34L176.223 605.774ZM168.527 599.345C169.372 599.345 170.151 599.183 170.865 598.858C171.645 598.468 172.229 598.111 172.619 597.786C173.008 597.397 173.203 597.202 173.203 597.202V573.822C169.242 573.822 166.092 574.926 163.754 577.134C161.416 579.277 160.247 582.622 160.247 587.168C160.247 595.286 163.007 599.345 168.527 599.345ZM275.283 614.444H245.572L220.731 531.642H255.898L267.685 584.44L276.55 548.202L271.971 531.642H305.677L315.613 584.44L328.764 531.642H349.611L324.673 614.444H295.058L285.512 580.349L275.283 614.444ZM401.17 614.444H369.705V551.417L363.86 547.813V536.805L384.804 531.642H392.695L395.52 554.826C398.182 538.915 406.722 530.96 421.14 530.96C422.763 530.96 424.452 531.252 426.205 531.836L422.893 566.516C421.53 565.282 418.542 564.665 413.931 564.665C407.307 564.665 403.053 566.419 401.17 569.926V614.444ZM490.614 605.774L489.64 606.846C488.991 607.625 487.984 608.534 486.62 609.574C485.321 610.613 483.795 611.652 482.042 612.691C480.353 613.73 478.275 614.607 475.807 615.321C473.339 616.1 470.806 616.49 468.209 616.49C450.674 616.49 441.907 607.82 441.907 590.48C441.907 587.103 442.524 584.018 443.758 581.226C444.992 578.368 446.583 575.965 448.531 574.017C450.479 572.069 452.817 570.348 455.545 568.854C458.272 567.295 461 566.094 463.728 565.25C466.52 564.341 469.443 563.594 472.495 563.009C475.547 562.425 478.275 562.035 480.678 561.84C483.081 561.645 485.386 561.548 487.594 561.548V559.795C487.594 555.833 486.523 553.04 484.38 551.417C482.301 549.793 478.924 548.981 474.248 548.981C470.222 548.981 466.033 549.469 461.682 550.443C457.331 551.352 453.921 552.456 451.453 553.755L445.219 540.506C449.635 537.649 455.382 535.149 462.461 533.005C469.54 530.797 476.749 529.693 484.087 529.693C490.582 529.693 495.939 530.343 500.161 531.642C504.382 532.876 507.792 535.019 510.389 538.071C513.052 541.058 514.935 544.89 516.039 549.566C517.143 554.177 517.695 560.054 517.695 567.198V606.846L520.423 614.444H493.731L490.614 605.774ZM482.918 599.345C483.763 599.345 484.542 599.183 485.256 598.858C486.036 598.468 486.62 598.111 487.01 597.786C487.399 597.397 487.594 597.202 487.594 597.202V573.822C483.633 573.822 480.483 574.926 478.145 577.134C475.807 579.277 474.638 582.622 474.638 587.168C474.638 595.286 477.398 599.345 482.918 599.345Z" fill="#C8AAAA"/>
</svg>
